<svg width="36" height="36" viewBox="0 0 24 24" fill="none" xmlns="http://www.w3.org/2000/svg">
  <defs>
    <linearGradient id="s3-understand" x1="2" y1="2" x2="22" y2="22" gradientUnits="userSpaceOnUse">
      <stop stop-color="#3B82F6"/>
      <stop offset="0.5" stop-color="#7C3AED"/>
      <stop offset="1" stop-color="#EC4899"/>
    </linearGradient>
  </defs>
  <path d="M9.5 2A2.5 2.5 0 0 1 12 4.5v15a2.5 2.5 0 0 1-4.96-.46 2.5 2.5 0 0 1-1.07-4.95A3 3 0 0 1 5 12a3 3 0 0 1 .5-1.66 2.5 2.5 0 0 1-.5-4.88A2.5 2.5 0 0 1 9.5 2Z" stroke="url(#s3-understand)" stroke-width="2" stroke-linecap="round" stroke-linejoin="round"/>
  <path d="M14.5 2A2.5 2.5 0 0 0 12 4.5v15a2.5 2.5 0 0 0 4.96-.46 2.5 2.5 0 0 0 1.07-4.95A3 3 0 0 0 19 12a3 3 0 0 0-.5-1.66 2.5 2.5 0 0 0 .5-4.88A2.5 2.5 0 0 0 14.5 2Z" stroke="url(#s3-understand)" stroke-width="2" stroke-linecap="round" stroke-linejoin="round"/>
</svg>
