<?xml version="1.0" encoding="UTF-8"?>
<svg version="1.1" xmlns="http://www.w3.org/2000/svg" width="147" height="154">
<path d="M0 0 C5.61330935 5.07870846 7.04670607 9.08849647 7.625 16.375 C8.20766152 20.53588875 9.66067474 23.67300239 11.625 27.375 C13.58691921 31.07246312 15.01403819 34.22045969 15.625 38.375 C16.635625 38.045 17.64625 37.715 18.6875 37.375 C27.57005715 35.17806861 39.50085537 34.50729748 47.625 39.375 C51.40072819 42.76594061 54.21659595 46.10107245 54.86328125 51.28515625 C55.27737834 63.29397199 48.80676742 71.44382769 41.625 80.375 C42.98473034 83.30264905 44.56526223 85.71914908 46.5625 88.25 C48.50223012 90.75257747 49.75129781 92.67352209 51 95.625 C52.78163418 98.64007322 53.49633389 98.9972016 56.5625 100.375 C60.80129459 102.31095038 62.72718677 103.94676914 64.625 108.375 C65.36436088 113.98181999 65.40147967 118.70258226 63 123.875 C58.84305603 128.2507305 55.73859464 130.59961285 49.625 130.875 C46.07275289 130.92054163 44.79618044 130.4975469 41.84765625 128.38671875 C37.7648049 125.83802973 34.77088071 125.74918184 30.0625 125.6875 C20.93986574 125.4259475 20.93986574 125.4259475 16.625 124.375 C16.12871094 125.4371875 15.63242188 126.499375 15.12109375 127.59375 C5.32349776 148.13834967 5.32349776 148.13834967 -3.375 151.375 C-9.5079255 152.31197473 -14.39814644 151.76299224 -19.49609375 148.1171875 C-25.43500465 142.61042188 -29.84759615 135.05140051 -32.375 127.375 C-32.375 126.385 -32.375 125.395 -32.375 124.375 C-33.1896875 124.53355469 -34.004375 124.69210938 -34.84375 124.85546875 C-37.45774143 125.24004935 -39.84671507 125.47097489 -42.46875 125.55078125 C-43.54962891 125.58655273 -43.54962891 125.58655273 -44.65234375 125.62304688 C-46.13382132 125.66600712 -47.61568466 125.69726298 -49.09765625 125.71679688 C-54.36428963 125.9193597 -57.00984837 127.25440705 -61.375 130.375 C-66.2713444 131.39009579 -70.29267878 130.91616061 -74.75 128.6875 C-79.63047662 124.3880325 -82.19198479 121.16598196 -82.625 114.5625 C-82.53693539 109.22969886 -80.83372412 105.79533664 -77 102.0625 C-74.35189453 100.36014648 -72.47685729 99.72949798 -69.375 99.375 C-69.13007812 98.50230469 -68.88515625 97.62960938 -68.6328125 96.73046875 C-67.28637981 93.13858775 -65.59851437 90.7052147 -63.25 87.6875 C-60.10509132 83.96298882 -60.10509132 83.96298882 -59.375 79.375 C-60.78215925 77.30934919 -60.78215925 77.30934919 -62.625 75.1875 C-69.35018771 66.84227719 -72.22763035 59.11182669 -71.375 48.375 C-69.58037251 43.78872974 -66.32182272 41.23838119 -62.375 38.375 C-57.70224495 36.4167645 -53.43889873 36.09759785 -48.4375 36.1875 C-47.76009766 36.18814453 -47.08269531 36.18878906 -46.38476562 36.18945312 C-41.94977972 36.22772242 -37.73871453 36.66383401 -33.375 37.375 C-32.96507812 36.39917969 -32.55515625 35.42335937 -32.1328125 34.41796875 C-31.58870286 33.13274425 -31.04442311 31.84759175 -30.5 30.5625 C-30.23058594 29.91990234 -29.96117187 29.27730469 -29.68359375 28.61523438 C-28.42804269 25.66009592 -27.16222822 23.05584233 -25.375 20.375 C-25.20511148 18.65104932 -25.10890608 16.91917968 -25.0625 15.1875 C-24.62631832 9.50961782 -23.20550034 5.62185907 -19.375 1.375 C-13.61271878 -2.91320928 -6.3486412 -3.05675317 0 0 Z M-14.3125 8.4375 C-15.9890629 11.49476176 -15.74028977 13.9656288 -15.375 17.375 C-13.84109879 19.79694927 -12.68091626 20.26229401 -10 21.25 C-6.47214716 21.41799299 -5.04007098 20.66992223 -2.375 18.375 C-1.34612713 15.15119834 -1.06069257 13.26956729 -2.1875 10.0625 C-3.28187325 8.22402178 -3.28187325 8.22402178 -5.375 7.375 C-10.01781715 6.96619434 -10.01781715 6.96619434 -14.3125 8.4375 Z M-19.375 26.375 C-21.84686455 29.33846786 -23.03748361 31.91541689 -24.0625 35.625 C-24.31386719 36.51703125 -24.56523438 37.4090625 -24.82421875 38.328125 C-25.00597656 39.00359375 -25.18773437 39.6790625 -25.375 40.375 C-14.98810891 45.57439064 -14.98810891 45.57439064 -3.875 45.4375 C-2.35757014 44.78937742 -0.85608032 44.10236329 0.625 43.375 C2.16221122 42.8004358 3.70367509 42.23706495 5.25 41.6875 C6.36375 41.254375 7.4775 40.82125 8.625 40.375 C6.975 36.085 5.325 31.795 3.625 27.375 C0.26805506 27.375 -1.43500616 27.62942992 -4.5 28.5625 C-9.97605053 29.88367692 -14.24218883 28.36811665 -19.375 26.375 Z M-63.8125 49.0625 C-65.24467609 54.95033505 -63.39737784 60.19500578 -60.62890625 65.34375 C-58.45193177 68.87031302 -55.95769319 72.13802454 -53.375 75.375 C-47.46556186 72.62285032 -40.2929776 68.76263786 -37.57714844 62.54980469 C-35.90510238 56.93630783 -35.375 51.2183453 -35.375 45.375 C-39.49285333 44.23248745 -43.50098492 44.15420285 -47.75 44.125 C-48.4925 44.104375 -49.235 44.08375 -50 44.0625 C-55.38195205 44.024465 -60.10950262 44.71550308 -63.8125 49.0625 Z M17.625 45.375 C18.1954312 57.02136875 18.1954312 57.02136875 22.875 67.3125 C25.38320542 69.28323283 27.81536402 70.87197285 30.625 72.375 C32.29288841 73.37296093 33.95991519 74.37236829 35.625 75.375 C43.72780438 65.88134847 43.72780438 65.88134847 47.125 54.1875 C46.56683621 49.93150108 45.71860103 48.29182383 42.625 45.375 C38.81102052 44.10367351 35.22157783 44.22987376 31.25 44.25 C30.11691406 44.24419922 30.11691406 44.24419922 28.9609375 44.23828125 C25.04914069 44.24512006 21.44478781 44.41624848 17.625 45.375 Z M-27.375 47.375 C-28.79758812 51.19820557 -29.61542276 54.28781305 -29.375 58.375 C-29.045 57.715 -28.715 57.055 -28.375 56.375 C-26.71802621 55.68459426 -25.0494239 55.0219365 -23.375 54.375 C-21.6920608 53.40263513 -20.02056566 52.40935556 -18.375 51.375 C-21.36146769 49.38402154 -23.97187262 48.43375074 -27.375 47.375 Z M5.5625 48.875 C4.46228516 49.29265625 4.46228516 49.29265625 3.33984375 49.71875 C2.77394531 49.9353125 2.20804687 50.151875 1.625 50.375 C4.90208863 54.04533927 8.34022208 56.06781189 12.625 58.375 C11.965 54.745 11.305 51.115 10.625 47.375 C8.83618763 47.375 7.2166932 48.24483116 5.5625 48.875 Z M-19.9375 60.6875 C-21.25137695 61.43676758 -21.25137695 61.43676758 -22.59179688 62.20117188 C-23.42904297 62.68779297 -24.26628906 63.17441406 -25.12890625 63.67578125 C-26.27854858 64.34347534 -26.27854858 64.34347534 -27.45141602 65.0246582 C-29.64955707 66.39434666 -29.64955707 66.39434666 -31.375 69.375 C-31.86256427 73.15041801 -31.79147305 76.94645896 -31.8125 80.75 C-31.84537109 81.7915625 -31.87824219 82.833125 -31.91210938 83.90625 C-31.99081066 89.98408432 -31.99081066 89.98408432 -29.34375 95.296875 C-25.78373745 97.78888379 -22.22154865 100.11378683 -18.4375 102.25 C-17.40206055 102.87261719 -17.40206055 102.87261719 -16.34570312 103.5078125 C-13.21200889 105.29000827 -11.06493228 106.35857304 -7.421875 106.4453125 C-3.13169401 104.93824892 0.57216565 102.74758375 4.4375 100.375 C5.21287109 99.9109375 5.98824219 99.446875 6.78710938 98.96875 C10.405782 96.93830682 10.405782 96.93830682 13.625 94.375 C15.98047177 79.33631244 15.98047177 79.33631244 12.24511719 65.265625 C8.8172537 62.17959302 4.85764568 60.47248168 0.51464844 59.03125 C-1.375 58.375 -1.375 58.375 -4.6796875 56.6875 C-10.67390013 53.76857907 -14.73758127 57.63980188 -19.9375 60.6875 Z M-41.78515625 75.6875 C-42.33042969 76.244375 -42.87570313 76.80125 -43.4375 77.375 C-43.98535156 77.931875 -44.53320312 78.48875 -45.09765625 79.0625 C-45.51917969 79.495625 -45.94070312 79.92875 -46.375 80.375 C-45.04167905 84.37496286 -42.8792173 85.21282337 -39.375 87.375 C-39.375 83.085 -39.375 78.795 -39.375 74.375 C-40.57407469 74.26144897 -40.57407469 74.26144897 -41.78515625 75.6875 Z M21.625 74.375 C21.625 78.995 21.625 83.615 21.625 88.375 C21.955 87.715 22.285 87.055 22.625 86.375 C23.24375 86.08625 23.8625 85.7975 24.5 85.5 C27.12104763 84.3056833 27.12104763 84.3056833 29.625 80.375 C26.985 78.395 24.345 76.415 21.625 74.375 Z M-52.375 86.375 C-57.97801052 92.18008926 -57.97801052 92.18008926 -61.375 99.375 C-60.281875 100.055625 -59.18875 100.73625 -58.0625 101.4375 C-54.21376297 104.20329281 -52.72673447 106.76320006 -51.375 111.375 C-51.1875 115.3125 -51.1875 115.3125 -51.375 118.375 C-49.27051062 118.23390014 -47.1664123 118.08695825 -45.0625 117.9375 C-43.30486328 117.81568359 -43.30486328 117.81568359 -41.51171875 117.69140625 C-38.34909042 117.4882629 -38.34909042 117.4882629 -35.375 116.375 C-35.65750662 113.79036498 -35.9506226 111.20768865 -36.25 108.625 C-36.32863281 107.89539063 -36.40726563 107.16578125 -36.48828125 106.4140625 C-37.12219697 101.05016026 -37.63911443 97.95307779 -41.65234375 94.3046875 C-42.53019531 93.62664062 -43.40804687 92.94859375 -44.3125 92.25 C-45.18777344 91.56679687 -46.06304687 90.88359375 -46.96484375 90.1796875 C-48.72961514 88.85825414 -50.54059719 87.59793521 -52.375 86.375 Z M28.6875 91.3125 C22.88877295 96.24311352 22.88877295 96.24311352 20.625 97.375 C20.06342763 99.30487258 20.06342763 99.30487258 19.7734375 101.62890625 C19.64453125 102.48291016 19.515625 103.33691406 19.3828125 104.21679688 C19.25648437 105.11462891 19.13015625 106.01246094 19 106.9375 C18.8659375 107.83919922 18.731875 108.74089844 18.59375 109.66992188 C18.262791 111.90389514 17.94026495 114.13876696 17.625 116.375 C19.54095482 116.71240085 21.45779722 117.04476412 23.375 117.375 C24.44234375 117.560625 25.5096875 117.74625 26.609375 117.9375 C29.77689374 118.47071643 29.77689374 118.47071643 33.625 118.375 C33.65078125 117.79492188 33.6765625 117.21484375 33.703125 116.6171875 C34.09942527 111.15905202 34.95154191 107.66070111 38.625 103.375 C41.375 101.5 41.375 101.5 43.625 100.375 C43.08851765 96.18000604 41.77137983 93.83251442 39.125 90.5625 C38.18140625 89.37720703 38.18140625 89.37720703 37.21875 88.16796875 C36.6928125 87.57628906 36.166875 86.98460938 35.625 86.375 C33.2354161 86.375 30.52509913 89.74808634 28.6875 91.3125 Z M-29.375 104.375 C-29.26137738 105.8550841 -29.13377092 107.33410074 -29 108.8125 C-28.93039063 109.63621094 -28.86078125 110.45992188 -28.7890625 111.30859375 C-28.65242188 111.99050781 -28.51578125 112.67242187 -28.375 113.375 C-26.40267749 114.63473028 -26.40267749 114.63473028 -24.2109375 113.81640625 C-23.39882813 113.52636719 -22.58671875 113.23632812 -21.75 112.9375 C-20.93273438 112.65003906 -20.11546875 112.36257812 -19.2734375 112.06640625 C-18.64695312 111.83824219 -18.02046875 111.61007813 -17.375 111.375 C-21.02359761 108.33450199 -25.1194533 106.40981238 -29.375 104.375 Z M5 107.875 C4.18273437 108.3390625 3.36546875 108.803125 2.5234375 109.28125 C1.89695312 109.6421875 1.27046875 110.003125 0.625 110.375 C3.90963659 112.56475773 6.83196275 113.37306563 10.625 114.375 C10.955 111.405 11.285 108.435 11.625 105.375 C8.88248805 105.375 7.36994155 106.52074768 5 107.875 Z M42.625 110.375 C41.83720224 113.94981814 41.96207983 117.12715027 43.6875 120.375 C46.75715135 121.95933618 49.24181143 121.73748449 52.625 121.375 C55.04694927 119.84109879 55.51229401 118.68091626 56.5 116 C56.66799299 112.47214716 55.91992223 111.04007098 53.625 108.375 C49.09540672 106.79948929 46.12703688 106.97596421 42.625 110.375 Z M-72.375 109.375 C-73.79541821 112.21583641 -73.68952272 114.22977278 -73.375 117.375 C-71.875 119.875 -71.875 119.875 -69.375 121.375 C-65.7032913 121.98695145 -64.08686432 121.86206506 -61 119.75 C-58.91120159 116.69714079 -58.83431438 115.00531776 -59.375 111.375 C-60.92741581 109.00552323 -62.07422484 108.47789676 -64.75 107.5625 C-67.86785425 107.33979613 -69.62670913 107.92451315 -72.375 109.375 Z M-17.5 118.375 C-18.25410156 118.66117187 -19.00820313 118.94734375 -19.78515625 119.2421875 C-21.64955573 119.9501873 -23.51242474 120.66221493 -25.375 121.375 C-24.25452905 128.54601409 -20.85223761 136.63443133 -15.375 141.5625 C-12.13922973 143.51744454 -10.15634216 144.375 -6.375 144.375 C0.42558023 141.10985655 3.95976732 134.4475164 6.73828125 127.65234375 C7.43118263 125.5802074 8.03844109 123.47971138 8.625 121.375 C6.00146482 120.37100476 3.37632205 119.37165555 0.75 118.375 C-0.36955078 117.94574219 -0.36955078 117.94574219 -1.51171875 117.5078125 C-8.20869154 114.9738228 -10.97555276 115.87339847 -17.5 118.375 Z " fill="#212121" transform="translate(82.375,1.625)"/>
<path d="" fill="#000000" transform="translate(0,0)"/>
</svg>
